<svg width="36" height="41" viewBox="0 0 36 41" fill="none" xmlns="http://www.w3.org/2000/svg">
<path d="M3.231 36C2.336 36 1.57367 35.6853 0.944 35.056C0.314667 34.4263 0 33.664 0 32.769V7.231C0 6.336 0.314667 5.57367 0.944 4.944C1.57367 4.31467 2.336 4 3.231 4H12.631C12.4487 2.97933 12.6928 2.0575 13.3635 1.2345C14.0338 0.4115 14.9127 0 16 0C17.1127 0 18.0043 0.4115 18.675 1.2345C19.3457 2.0575 19.577 2.97933 19.369 4H28.769C29.664 4 30.4263 4.31467 31.056 4.944C31.6853 5.57367 32 6.336 32 7.231V19.131C31.6487 19.0103 31.3128 18.9122 30.9925 18.8365C30.6718 18.7608 30.341 18.6858 30 18.6115V7.231C30 6.923 29.8718 6.64083 29.6155 6.3845C29.3592 6.12817 29.077 6 28.769 6H3.231C2.923 6 2.64083 6.12817 2.3845 6.3845C2.12817 6.64083 2 6.923 2 7.231V32.769C2 33.077 2.12817 33.3592 2.3845 33.6155C2.64083 33.8718 2.923 34 3.231 34H14.5615C14.6102 34.3743 14.6723 34.7218 14.748 35.0425C14.8237 35.3628 14.9218 35.682 15.0425 36H3.231ZM2 32V34V6V18.6115V18.4615V32ZM7 28.5385H14.919C14.9937 28.1975 15.0943 27.8667 15.221 27.546C15.348 27.2257 15.4807 26.8898 15.619 26.5385H7V28.5385ZM7 21H20.1615C20.8178 20.5383 21.4647 20.1473 22.102 19.827C22.739 19.5063 23.423 19.255 24.154 19.073V19H7V21ZM7 13.4615H25V11.4615H7V13.4615ZM16 4.8845C16.4333 4.8845 16.7917 4.74283 17.075 4.4595C17.3583 4.17617 17.5 3.81783 17.5 3.3845C17.5 2.95117 17.3583 2.59283 17.075 2.3095C16.7917 2.02617 16.4333 1.8845 16 1.8845C15.5667 1.8845 15.2083 2.02617 14.925 2.3095C14.6417 2.59283 14.5 2.95117 14.5 3.3845C14.5 3.81783 14.6417 4.17617 14.925 4.4595C15.2083 4.74283 15.5667 4.8845 16 4.8845ZM28 40.231C25.7717 40.231 23.8813 39.4547 22.329 37.902C20.7763 36.3493 20 34.459 20 32.231C20 30.0027 20.7763 28.1122 22.329 26.5595C23.8813 25.0072 25.7717 24.231 28 24.231C30.2283 24.231 32.1187 25.0072 33.671 26.5595C35.2237 28.1122 36 30.0027 36 32.231C36 34.459 35.2237 36.3493 33.671 37.902C32.1187 39.4547 30.2283 40.231 28 40.231ZM27.231 38H28.769V33H33.769V31.4615H28.769V26.4615H27.231V31.4615H22.231V33H27.231V38Z" fill="#23282F"/>
</svg>
