<svg width="32" height="32" viewBox="0 0 32 32" fill="none" xmlns="http://www.w3.org/2000/svg">
<path d="M15.923 32C11.8617 32 8.32136 30.6737 5.30202 28.021C2.28269 25.3687 0.535857 22.0283 0.0615234 18H2.08452C2.62819 21.441 4.19552 24.3013 6.78652 26.581C9.37752 28.8603 12.423 30 15.923 30C19.823 30 23.1314 28.6417 25.848 25.925C28.5647 23.2083 29.923 19.9 29.923 16C29.923 12.1 28.5647 8.79167 25.848 6.075C23.1314 3.35833 19.823 2 15.923 2C13.8537 2 11.9089 2.43717 10.0885 3.3115C8.26786 4.18583 6.66136 5.38967 5.26902 6.923H10.231V8.923H1.92302V0.6155H3.92302V5.3925C5.46936 3.69483 7.28152 2.37167 9.35952 1.423C11.4379 0.474334 13.6257 0 15.923 0C18.141 0 20.2199 0.417332 22.1595 1.252C24.0992 2.08667 25.794 3.229 27.244 4.679C28.694 6.129 29.8364 7.82383 30.671 9.7635C31.5057 11.7032 31.923 13.782 31.923 16C31.923 18.218 31.5057 20.2968 30.671 22.2365C29.8364 24.1762 28.694 25.871 27.244 27.321C25.794 28.771 24.0992 29.9133 22.1595 30.748C20.2199 31.5827 18.141 32 15.923 32ZM22.331 23.7075L15.0385 16.4155V6H17.0385V15.5845L23.746 22.2925L22.331 23.7075Z" fill="#23282F"/>
</svg>
