<svg width="32" height="30" viewBox="0 0 32 30" fill="none" xmlns="http://www.w3.org/2000/svg">
<path d="M11.231 27.9997V25.9997H32V27.9997H11.231ZM11.231 15.9997V13.9997H32V15.9997H11.231ZM11.231 3.9997V1.9997H32V3.9997H11.231ZM2.654 29.6537C1.924 29.6537 1.29917 29.3939 0.7795 28.8742C0.259833 28.3542 0 27.7294 0 26.9997C0 26.27 0.259833 25.6452 0.7795 25.1252C1.29917 24.6055 1.924 24.3457 2.654 24.3457C3.38367 24.3457 4.00833 24.6055 4.528 25.1252C5.04767 25.6452 5.3075 26.27 5.3075 26.9997C5.3075 27.7294 5.04767 28.3542 4.528 28.8742C4.00833 29.3939 3.38367 29.6537 2.654 29.6537ZM2.654 17.6537C1.924 17.6537 1.29917 17.3939 0.7795 16.8742C0.259833 16.3542 0 15.7294 0 14.9997C0 14.27 0.259833 13.6452 0.7795 13.1252C1.29917 12.6055 1.924 12.3457 2.654 12.3457C3.38367 12.3457 4.00833 12.6055 4.528 13.1252C5.04767 13.6452 5.3075 14.27 5.3075 14.9997C5.3075 15.7294 5.04767 16.3542 4.528 16.8742C4.00833 17.3939 3.38367 17.6537 2.654 17.6537ZM2.654 5.65371C1.924 5.65371 1.29917 5.39387 0.7795 4.8742C0.259833 4.3542 0 3.72937 0 2.9997C0 2.27004 0.259833 1.6452 0.7795 1.1252C1.29917 0.605538 1.924 0.345703 2.654 0.345703C3.38367 0.345703 4.00833 0.605538 4.528 1.1252C5.04767 1.6452 5.3075 2.27004 5.3075 2.9997C5.3075 3.72937 5.04767 4.3542 4.528 4.8742C4.00833 5.39387 3.38367 5.65371 2.654 5.65371Z" fill="#23282F"/>
</svg>
