<svg width="24" height="25" viewBox="0 0 24 25" fill="none" xmlns="http://www.w3.org/2000/svg">
<path d="M20.4462 21.9999L17.7653 19.3286C17.4307 19.5325 17.077 19.6953 16.704 19.8171C16.331 19.939 15.9425 19.9999 15.5385 19.9999C14.4423 19.9999 13.508 19.6136 12.7355 18.8411C11.9632 18.0688 11.577 17.1345 11.577 16.0384C11.577 14.9422 11.9632 14.0079 12.7355 13.2354C13.508 12.463 14.4423 12.0769 15.5385 12.0769C16.6347 12.0769 17.5689 12.463 18.3413 13.2354C19.1138 14.0079 19.5 14.9422 19.5 16.0384C19.5 16.4397 19.4423 16.8291 19.327 17.2066C19.2115 17.5841 19.0423 17.937 18.8193 18.2651L21.5 20.9461L20.4462 21.9999ZM15.5363 18.4999C16.2249 18.4999 16.8077 18.2621 17.2845 17.7866C17.7615 17.3111 18 16.7291 18 16.0406C18 15.352 17.7622 14.7691 17.2867 14.2921C16.8112 13.8153 16.2292 13.5769 15.5408 13.5769C14.8521 13.5769 14.2692 13.8146 13.7923 14.2901C13.3154 14.7655 13.077 15.3475 13.077 16.0361C13.077 16.7248 13.3147 17.3075 13.7902 17.7844C14.2656 18.2614 14.8476 18.4999 15.5363 18.4999ZM20.5 10.8461H19V5.80762C19 5.73062 18.9679 5.66012 18.9038 5.59612C18.8398 5.53195 18.7692 5.49987 18.6923 5.49987H16.5V8.11512H7.5V5.49987H5.30775C5.23075 5.49987 5.16025 5.53195 5.09625 5.59612C5.03208 5.66012 5 5.73062 5 5.80762V19.1921C5 19.2691 5.03208 19.3396 5.09625 19.4036C5.16025 19.4678 5.23075 19.4999 5.30775 19.4999H10.25V20.9999H5.30775C4.81058 20.9999 4.385 20.8229 4.031 20.4689C3.677 20.1149 3.5 19.6893 3.5 19.1921V5.80762C3.5 5.31045 3.677 4.88487 4.031 4.53087C4.385 4.17687 4.81058 3.99987 5.30775 3.99987H9.7135C9.852 3.5127 10.135 3.10887 10.5625 2.78837C10.99 2.46787 11.4692 2.30762 12 2.30762C12.5513 2.30762 13.0382 2.46787 13.4605 2.78837C13.883 3.10887 14.1635 3.5127 14.302 3.99987H18.6923C19.1894 3.99987 19.615 4.17687 19.969 4.53087C20.323 4.88487 20.5 5.31045 20.5 5.80762V10.8461ZM12.0017 5.61537C12.2583 5.61537 12.4727 5.52853 12.6453 5.35487C12.8176 5.18137 12.9038 4.96628 12.9038 4.70962C12.9038 4.45312 12.817 4.23862 12.6435 4.06612C12.47 3.89378 12.2549 3.80762 11.9983 3.80762C11.7417 3.80762 11.5273 3.89437 11.3548 4.06787C11.1824 4.24153 11.0963 4.45662 11.0963 4.71312C11.0963 4.96962 11.183 5.18412 11.3565 5.35662C11.53 5.52912 11.7451 5.61537 12.0017 5.61537Z" fill="white"/>
</svg>
