<svg width="21" height="17" viewBox="0 0 21 17" fill="none" xmlns="http://www.w3.org/2000/svg">
<path d="M10.0422 12.3973L12.8155 9.624L15.5889 12.3973L16.7129 11.2733L13.9395 8.5L16.7129 5.72667L15.5889 4.60267L12.8155 7.376L10.0422 4.60267L8.91793 5.72667L11.6913 8.5L8.91793 11.2733L10.0422 12.3973ZM7.759 16.5C7.45375 16.5 7.16451 16.4326 6.89127 16.2979C6.6182 16.1631 6.39331 15.9768 6.2166 15.7389L0.733398 8.5L6.2166 1.26107C6.39331 1.0232 6.6182 0.836889 6.89127 0.702134C7.16451 0.567378 7.45375 0.5 7.759 0.5H19.0718C19.6021 0.5 20.0561 0.6888 20.4337 1.0664C20.8113 1.444 21.0001 1.89796 21.0001 2.42827V14.5717C21.0001 15.102 20.8113 15.556 20.4337 15.9336C20.0561 16.3112 19.6021 16.5 19.0718 16.5H7.759ZM2.7334 8.5L7.49233 14.7768C7.52646 14.8179 7.56575 14.8487 7.6102 14.8693C7.65464 14.8898 7.70424 14.9 7.759 14.9H19.0718C19.1676 14.9 19.2463 14.8692 19.3078 14.8077C19.3693 14.7462 19.4001 14.6676 19.4001 14.5717V2.42827C19.4001 2.33244 19.3693 2.25378 19.3078 2.19227C19.2463 2.13076 19.1676 2.1 19.0718 2.1H7.759C7.70424 2.1 7.65464 2.11022 7.6102 2.13067C7.56575 2.15129 7.52646 2.18213 7.49233 2.2232L2.7334 8.5Z" fill="white"/>
</svg>
