<svg width="20" height="19" viewBox="0 0 20 19" fill="none" xmlns="http://www.w3.org/2000/svg">
<path d="M2.43337 19C1.90165 19 1.44649 18.8107 1.0679 18.4321C0.689299 18.0535 0.5 17.5984 0.5 17.0666V1.93337C0.5 1.40165 0.689299 0.946493 1.0679 0.567896C1.44649 0.189299 1.90165 0 2.43337 0H17.5666C18.0984 0 18.5535 0.189299 18.9321 0.567896C19.3107 0.946493 19.5 1.40165 19.5 1.93337V11.9583L12.4583 19H2.43337ZM12.1646 17.4367L17.9367 11.6646H12.1646V17.4367ZM4.75967 11.3408H10V9.77748H4.75967V11.3408ZM4.75967 7.03481H15.2403V5.47152H4.75967V7.03481Z" fill="#898D93"/>
</svg>
