<svg width="17" height="17" viewBox="0 0 17 17" fill="none" xmlns="http://www.w3.org/2000/svg">
<path d="M5.14402 10.1153C4.88977 10.1153 4.67665 10.0379 4.50465 9.88312C4.33266 9.72832 4.24666 9.53651 4.24666 9.30768C4.24666 9.07886 4.33266 8.88705 4.50465 8.73225C4.67665 8.57746 4.88977 8.50006 5.14402 8.50006C5.39827 8.50006 5.6114 8.57746 5.78339 8.73225C5.95538 8.88705 6.04138 9.07886 6.04138 9.30768C6.04138 9.53651 5.95538 9.72832 5.78339 9.88312C5.6114 10.0379 5.39827 10.1153 5.14402 10.1153ZM8.73346 10.1153C8.47921 10.1153 8.26609 10.0379 8.09409 9.88312C7.9221 9.72832 7.8361 9.53651 7.8361 9.30768C7.8361 9.07886 7.9221 8.88705 8.09409 8.73225C8.26609 8.57746 8.47921 8.50006 8.73346 8.50006C8.98771 8.50006 9.20083 8.57746 9.37283 8.73225C9.54482 8.88705 9.63082 9.07886 9.63082 9.30768C9.63082 9.53651 9.54482 9.72832 9.37283 9.88312C9.20083 10.0379 8.98771 10.1153 8.73346 10.1153ZM12.3229 10.1153C12.0686 10.1153 11.8555 10.0379 11.6835 9.88312C11.5115 9.72832 11.4255 9.53651 11.4255 9.30768C11.4255 9.07886 11.5115 8.88705 11.6835 8.73225C11.8555 8.57746 12.0686 8.50006 12.3229 8.50006C12.5771 8.50006 12.7903 8.57746 12.9623 8.73225C13.1343 8.88705 13.2203 9.07886 13.2203 9.30768C13.2203 9.53651 13.1343 9.72832 12.9623 9.88312C12.7903 10.0379 12.5771 10.1153 12.3229 10.1153ZM2.45194 16.5763C1.9584 16.5763 1.53589 16.4181 1.18443 16.1018C0.832959 15.7855 0.657227 15.4052 0.657227 14.961V3.65432C0.657227 3.21013 0.832959 2.82987 1.18443 2.51355C1.53589 2.19723 1.9584 2.03907 2.45194 2.03907H3.3493V0.423828H5.14402V2.03907H12.3229V0.423828H14.1176V2.03907H15.015C15.5085 2.03907 15.931 2.19723 16.2825 2.51355C16.634 2.82987 16.8097 3.21013 16.8097 3.65432V14.961C16.8097 15.4052 16.634 15.7855 16.2825 16.1018C15.931 16.4181 15.5085 16.5763 15.015 16.5763H2.45194ZM2.45194 14.961H15.015V6.88481H2.45194V14.961ZM2.45194 5.26957H15.015V3.65432H2.45194V5.26957Z" fill="#E8EAED"/>
</svg>
