<svg width="20" height="21" viewBox="0 0 20 21" fill="none" xmlns="http://www.w3.org/2000/svg">
<path d="M10 17.5C8.05556 17.5 6.40278 16.8194 5.04167 15.4583C3.68056 14.0972 3 12.4444 3 10.5H4.5C4.5 12.0139 5.03819 13.309 6.11458 14.3854C7.19097 15.4618 8.48611 16 10 16C11.5139 16 12.809 15.4618 13.8854 14.3854C14.9618 13.309 15.5 12.0139 15.5 10.5C15.5 8.98611 14.9618 7.69097 13.8854 6.61458C12.809 5.53819 11.5139 5 10 5C9.13889 5 8.3434 5.17778 7.61354 5.53333C6.88382 5.88889 6.26958 6.37778 5.77083 7H8V8.5H3V3.5H4.5V6.20833C5.13889 5.375 5.93403 4.71528 6.88542 4.22917C7.83681 3.74306 8.875 3.5 10 3.5C10.9722 3.5 11.8828 3.68472 12.7319 4.05417C13.581 4.42361 14.3199 4.92271 14.9485 5.55146C15.5773 6.18007 16.0764 6.91896 16.4458 7.76813C16.8153 8.61715 17 9.52778 17 10.5C17 11.4722 16.8153 12.3828 16.4458 13.2319C16.0764 14.081 15.5773 14.8199 14.9485 15.4485C14.3199 16.0773 13.581 16.5764 12.7319 16.9458C11.8828 17.3153 10.9722 17.5 10 17.5ZM12.0833 13.3333L9.25 10.5V6.5H10.75V9.875L13.1458 12.2708L12.0833 13.3333Z" fill="white"/>
</svg>
