<svg width="24" height="25" viewBox="0 0 24 25" fill="none" xmlns="http://www.w3.org/2000/svg">
<path d="M5.6155 20.5C5.15517 20.5 4.77083 20.3458 4.4625 20.0375C4.15417 19.7292 4 19.3448 4 18.8845V6.1155C4 5.65517 4.15417 5.27083 4.4625 4.9625C4.77083 4.65417 5.15517 4.5 5.6155 4.5H12.0192V5.5H5.6155C5.4615 5.5 5.32042 5.56408 5.19225 5.69225C5.06408 5.82042 5 5.9615 5 6.1155V18.8845C5 19.0385 5.06408 19.1796 5.19225 19.3077C5.32042 19.4359 5.4615 19.5 5.6155 19.5H12.0192V20.5H5.6155ZM16.4615 16.0385L15.7595 15.3193L18.0788 13H9.19225V12H18.0788L15.7595 9.68075L16.4615 8.9615L20 12.5L16.4615 16.0385Z" fill="white"/>
</svg>
