<svg width="24" height="25" viewBox="0 0 24 25" fill="none" xmlns="http://www.w3.org/2000/svg">
<path d="M11.8463 18.75H12.8462V17.75H14.3462C14.4884 17.75 14.6073 17.7023 14.703 17.6068C14.7985 17.5113 14.8462 17.3923 14.8462 17.25V14.25C14.8462 14.1077 14.7985 13.9888 14.703 13.8933C14.6073 13.7978 14.4884 13.75 14.3462 13.75H10.8463V11.75H14.8462V10.75H12.8462V9.75H11.8463V10.75H10.3463C10.2039 10.75 10.085 10.7977 9.9895 10.8932C9.894 10.9887 9.84625 11.1077 9.84625 11.25V14.25C9.84625 14.3923 9.894 14.5112 9.9895 14.6067C10.085 14.7022 10.2039 14.75 10.3463 14.75H13.8462V16.75H9.84625V17.75H11.8463V18.75ZM6.6155 21.5C6.15517 21.5 5.77083 21.3458 5.4625 21.0375C5.15417 20.7292 5 20.3448 5 19.8845V5.1155C5 4.65517 5.15417 4.27083 5.4625 3.9625C5.77083 3.65417 6.15517 3.5 6.6155 3.5H14.5L19 8V19.8845C19 20.3448 18.8458 20.7292 18.5375 21.0375C18.2292 21.3458 17.8448 21.5 17.3845 21.5H6.6155ZM14 8.26925V4.5H6.6155C6.4615 4.5 6.32042 4.56408 6.19225 4.69225C6.06408 4.82042 6 4.9615 6 5.1155V19.8845C6 20.0385 6.06408 20.1796 6.19225 20.3078C6.32042 20.4359 6.4615 20.5 6.6155 20.5H17.3845C17.5385 20.5 17.6796 20.4359 17.8077 20.3078C17.9359 20.1796 18 20.0385 18 19.8845V8.26925H14Z" fill="white"/>
</svg>
